<svg xmlns="http://www.w3.org/2000/svg" width="1200" height="630" font-family="Arial,Helvetica,sans-serif" viewBox="0 0 1200 630"><rect width="1200" height="630" fill="#fff"/><rect width="1200" height="92" fill="#173f5f"/><text x="40" y="40" fill="#fff" font-size="27" font-weight="800">UAE Medical Equipment Service Websites — At a Glance</text><text x="40" y="68" fill="#cfe3ea" font-size="13.5">15 company websites compared on 20 criteria · compiled from publicly available data, June 2026 · full matrix: qaboosbest.com/compare</text><text x="64" y="127" fill="#5a6a76" font-size="12" font-weight="700" letter-spacing="1">RANKED BY WEBSITE SCORE (present = 1 · partial = 0.5 · max 20)</text><text x="760" y="127" fill="#5a6a76" font-size="12" font-weight="700" letter-spacing="1">THE GAPS THAT MATTER</text><text x="64" y="165" fill="#1c2b33" font-size="13.5" font-weight="700">1.</text><text x="88" y="165" fill="#b8860b" font-size="13.5" font-weight="700">Qaboos Best ★</text><rect width="360" height="16" x="300" y="152" fill="#edf3f8"/><rect width="225" height="16" x="300" y="152" fill="#b8860b"/><text x="672" y="165" fill="#1c2b33" font-size="13" font-weight="700">12.5</text><text x="64" y="194" fill="#1c2b33" font-size="13.5" font-weight="500">2.</text><text x="88" y="194" fill="#1c2b33" font-size="13.5" font-weight="500">Meditron</text><rect width="360" height="16" x="300" y="181" fill="#edf3f8"/><rect width="216" height="16" x="300" y="181" fill="#14507e"/><text x="672" y="194" fill="#1c2b33" font-size="13" font-weight="700">12</text><text x="64" y="223" fill="#1c2b33" font-size="13.5" font-weight="500">3.</text><text x="88" y="223" fill="#1c2b33" font-size="13.5" font-weight="500">Paramount</text><rect width="360" height="16" x="300" y="210" fill="#edf3f8"/><rect width="207" height="16" x="300" y="210" fill="#14507e"/><text x="672" y="223" fill="#1c2b33" font-size="13" font-weight="700">11.5</text><text x="64" y="252" fill="#1c2b33" font-size="13.5" font-weight="500">4.</text><text x="88" y="252" fill="#1c2b33" font-size="13.5" font-weight="500">Adamsmed</text><rect width="360" height="16" x="300" y="239" fill="#edf3f8"/><rect width="198" height="16" x="300" y="239" fill="#14507e"/><text x="672" y="252" fill="#1c2b33" font-size="13" font-weight="700">11</text><text x="64" y="281" fill="#1c2b33" font-size="13.5" font-weight="500">5.</text><text x="88" y="281" fill="#1c2b33" font-size="13.5" font-weight="500">URS Labs</text><rect width="360" height="16" x="300" y="268" fill="#edf3f8"/><rect width="180" height="16" x="300" y="268" fill="#14507e"/><text x="672" y="281" fill="#1c2b33" font-size="13" font-weight="700">10</text><text x="64" y="310" fill="#1c2b33" font-size="13.5" font-weight="500">6.</text><text x="88" y="310" fill="#1c2b33" font-size="13.5" font-weight="500">Cyrix-TSL</text><rect width="360" height="16" x="300" y="297" fill="#edf3f8"/><rect width="171" height="16" x="300" y="297" fill="#14507e"/><text x="672" y="310" fill="#1c2b33" font-size="13" font-weight="700">9.5</text><text x="64" y="339" fill="#1c2b33" font-size="13.5" font-weight="500">7.</text><text x="88" y="339" fill="#1c2b33" font-size="13.5" font-weight="500">IHAG</text><rect width="360" height="16" x="300" y="326" fill="#edf3f8"/><rect width="153" height="16" x="300" y="326" fill="#14507e"/><text x="672" y="339" fill="#1c2b33" font-size="13" font-weight="700">8.5</text><text x="64" y="368" fill="#1c2b33" font-size="13.5" font-weight="500">8.</text><text x="88" y="368" fill="#1c2b33" font-size="13.5" font-weight="500">Al Reem Hospico</text><rect width="360" height="16" x="300" y="355" fill="#edf3f8"/><rect width="144" height="16" x="300" y="355" fill="#14507e"/><text x="672" y="368" fill="#1c2b33" font-size="13" font-weight="700">8</text><text x="64" y="397" fill="#1c2b33" font-size="13.5" font-weight="500">9.</text><text x="88" y="397" fill="#1c2b33" font-size="13.5" font-weight="500">Alwan Alamal</text><rect width="360" height="16" x="300" y="384" fill="#edf3f8"/><rect width="135" height="16" x="300" y="384" fill="#14507e"/><text x="672" y="397" fill="#1c2b33" font-size="13" font-weight="700">7.5</text><text x="64" y="426" fill="#1c2b33" font-size="13.5" font-weight="500">10.</text><text x="88" y="426" fill="#1c2b33" font-size="13.5" font-weight="500">Vital Medical</text><rect width="360" height="16" x="300" y="413" fill="#edf3f8"/><rect width="108" height="16" x="300" y="413" fill="#14507e"/><text x="672" y="426" fill="#1c2b33" font-size="13" font-weight="700">6</text><text x="64" y="455" fill="#1c2b33" font-size="13.5" font-weight="500">11.</text><text x="88" y="455" fill="#1c2b33" font-size="13.5" font-weight="500">Sultan Medical</text><rect width="360" height="16" x="300" y="442" fill="#edf3f8"/><rect width="99" height="16" x="300" y="442" fill="#14507e"/><text x="672" y="455" fill="#1c2b33" font-size="13" font-weight="700">5.5</text><text x="64" y="484" fill="#1c2b33" font-size="13.5" font-weight="500">12.</text><text x="88" y="484" fill="#1c2b33" font-size="13.5" font-weight="500">Wadi Al Hanan</text><rect width="360" height="16" x="300" y="471" fill="#edf3f8"/><rect width="99" height="16" x="300" y="471" fill="#14507e"/><text x="672" y="484" fill="#1c2b33" font-size="13" font-weight="700">5.5</text><text x="64" y="513" fill="#1c2b33" font-size="13.5" font-weight="500">13.</text><text x="88" y="513" fill="#1c2b33" font-size="13.5" font-weight="500">Biomax</text><rect width="360" height="16" x="300" y="500" fill="#edf3f8"/><rect width="90" height="16" x="300" y="500" fill="#14507e"/><text x="672" y="513" fill="#1c2b33" font-size="13" font-weight="700">5</text><text x="64" y="542" fill="#1c2b33" font-size="13.5" font-weight="500">14.</text><text x="88" y="542" fill="#1c2b33" font-size="13.5" font-weight="500">Raza Medical</text><rect width="360" height="16" x="300" y="529" fill="#edf3f8"/><rect width="63" height="16" x="300" y="529" fill="#14507e"/><text x="672" y="542" fill="#1c2b33" font-size="13" font-weight="700">3.5</text><text x="64" y="571" fill="#1c2b33" font-size="13.5" font-weight="500">15.</text><text x="88" y="571" fill="#1c2b33" font-size="13.5" font-weight="500">Alsarm</text><rect width="360" height="16" x="300" y="558" fill="#edf3f8"/><rect width="54" height="16" x="300" y="558" fill="#14507e"/><text x="672" y="571" fill="#1c2b33" font-size="13" font-weight="700">3</text><rect width="6" height="78" x="760" y="132" fill="#14507e"/><text x="782" y="158" fill="#173f5f" font-size="34" font-weight="800">0 / 10</text><text x="782" y="182" fill="#5a6a76" font-size="13.5">direct repair competitors have</text><text x="782" y="200" fill="#5a6a76" font-size="13.5">any Arabic website — we are fully bilingual</text><rect width="6" height="78" x="760" y="240" fill="#b8860b"/><text x="782" y="266" fill="#173f5f" font-size="34" font-weight="800">1 / 15</text><text x="782" y="290" fill="#5a6a76" font-size="13.5">sites display a verifiable</text><text x="782" y="308" fill="#5a6a76" font-size="13.5">trade license. It&apos;s ours (DET 1475682)</text><rect width="6" height="78" x="760" y="348" fill="#14507e"/><text x="782" y="374" fill="#173f5f" font-size="34" font-weight="800">4 / 15</text><text x="782" y="398" fill="#5a6a76" font-size="13.5">sites have any FAQ section —</text><text x="782" y="416" fill="#5a6a76" font-size="13.5">ours is the only bilingual one</text><rect width="6" height="78" x="760" y="456" fill="#14507e"/><text x="782" y="482" fill="#173f5f" font-size="34" font-weight="800">10 / 15</text><text x="782" y="506" fill="#5a6a76" font-size="13.5">claim years-in-business;</text><text x="782" y="524" fill="#5a6a76" font-size="13.5">none show verifiable proof</text><rect width="1200" height="34" x="0" y="596" fill="#edf3f8"/><text x="40" y="617" fill="#5a6a76" font-size="11">Public website data only · competitor claims as stated, not independently verified · trademarks belong to their owners · © 2026 Qaboos Best Medical &amp; Laboratory Equipment Repairing Est.</text></svg>