<svg xmlns="http://www.w3.org/2000/svg" width="1200" height="630" viewBox="0 0 1200 630" font-family="Arial,Helvetica,sans-serif">
  <rect width="1200" height="630" fill="#ffffff"/>
  <rect width="1200" height="92" fill="#173f5f"/>
  <text x="40" y="40" font-size="27" font-weight="800" fill="#ffffff">UAE Medical Equipment Service Websites — At a Glance</text>
  <text x="40" y="68" font-size="13.5" fill="#cfe3ea">15 company websites compared on 20 criteria · compiled from publicly available data, June 2026 · full matrix: qaboosbest.com/compare</text>
  <text x="64" y="127" font-size="12" font-weight="700" fill="#5a6a76" letter-spacing="1">RANKED BY WEBSITE SCORE&#160;&#160;(present = 1 · partial = 0.5 · max 20)</text>
  <text x="760" y="127" font-size="12" font-weight="700" fill="#5a6a76" letter-spacing="1">THE GAPS THAT MATTER</text>
  <text x="64" y="165" font-size="13.5" font-weight="700" fill="#1c2b33">1.</text>
  <text x="88" y="165" font-size="13.5" font-weight="700" fill="#b8860b">Qaboos Best ★</text>
  <rect x="300" y="152" width="360" height="16" fill="#edf3f8"/>
  <rect x="300" y="152" width="225" height="16" fill="#b8860b"/>
  <text x="672" y="165" font-size="13" font-weight="700" fill="#1c2b33">12.5</text>
  <text x="64" y="194" font-size="13.5" font-weight="500" fill="#1c2b33">2.</text>
  <text x="88" y="194" font-size="13.5" font-weight="500" fill="#1c2b33">Meditron</text>
  <rect x="300" y="181" width="360" height="16" fill="#edf3f8"/>
  <rect x="300" y="181" width="216" height="16" fill="#14507e"/>
  <text x="672" y="194" font-size="13" font-weight="700" fill="#1c2b33">12</text>
  <text x="64" y="223" font-size="13.5" font-weight="500" fill="#1c2b33">3.</text>
  <text x="88" y="223" font-size="13.5" font-weight="500" fill="#1c2b33">Paramount</text>
  <rect x="300" y="210" width="360" height="16" fill="#edf3f8"/>
  <rect x="300" y="210" width="207" height="16" fill="#14507e"/>
  <text x="672" y="223" font-size="13" font-weight="700" fill="#1c2b33">11.5</text>
  <text x="64" y="252" font-size="13.5" font-weight="500" fill="#1c2b33">4.</text>
  <text x="88" y="252" font-size="13.5" font-weight="500" fill="#1c2b33">Adamsmed</text>
  <rect x="300" y="239" width="360" height="16" fill="#edf3f8"/>
  <rect x="300" y="239" width="198" height="16" fill="#14507e"/>
  <text x="672" y="252" font-size="13" font-weight="700" fill="#1c2b33">11</text>
  <text x="64" y="281" font-size="13.5" font-weight="500" fill="#1c2b33">5.</text>
  <text x="88" y="281" font-size="13.5" font-weight="500" fill="#1c2b33">URS Labs</text>
  <rect x="300" y="268" width="360" height="16" fill="#edf3f8"/>
  <rect x="300" y="268" width="180" height="16" fill="#14507e"/>
  <text x="672" y="281" font-size="13" font-weight="700" fill="#1c2b33">10</text>
  <text x="64" y="310" font-size="13.5" font-weight="500" fill="#1c2b33">6.</text>
  <text x="88" y="310" font-size="13.5" font-weight="500" fill="#1c2b33">Cyrix-TSL</text>
  <rect x="300" y="297" width="360" height="16" fill="#edf3f8"/>
  <rect x="300" y="297" width="171" height="16" fill="#14507e"/>
  <text x="672" y="310" font-size="13" font-weight="700" fill="#1c2b33">9.5</text>
  <text x="64" y="339" font-size="13.5" font-weight="500" fill="#1c2b33">7.</text>
  <text x="88" y="339" font-size="13.5" font-weight="500" fill="#1c2b33">IHAG</text>
  <rect x="300" y="326" width="360" height="16" fill="#edf3f8"/>
  <rect x="300" y="326" width="153" height="16" fill="#14507e"/>
  <text x="672" y="339" font-size="13" font-weight="700" fill="#1c2b33">8.5</text>
  <text x="64" y="368" font-size="13.5" font-weight="500" fill="#1c2b33">8.</text>
  <text x="88" y="368" font-size="13.5" font-weight="500" fill="#1c2b33">Al Reem Hospico</text>
  <rect x="300" y="355" width="360" height="16" fill="#edf3f8"/>
  <rect x="300" y="355" width="144" height="16" fill="#14507e"/>
  <text x="672" y="368" font-size="13" font-weight="700" fill="#1c2b33">8</text>
  <text x="64" y="397" font-size="13.5" font-weight="500" fill="#1c2b33">9.</text>
  <text x="88" y="397" font-size="13.5" font-weight="500" fill="#1c2b33">Alwan Alamal</text>
  <rect x="300" y="384" width="360" height="16" fill="#edf3f8"/>
  <rect x="300" y="384" width="135" height="16" fill="#14507e"/>
  <text x="672" y="397" font-size="13" font-weight="700" fill="#1c2b33">7.5</text>
  <text x="64" y="426" font-size="13.5" font-weight="500" fill="#1c2b33">10.</text>
  <text x="88" y="426" font-size="13.5" font-weight="500" fill="#1c2b33">Vital Medical</text>
  <rect x="300" y="413" width="360" height="16" fill="#edf3f8"/>
  <rect x="300" y="413" width="108" height="16" fill="#14507e"/>
  <text x="672" y="426" font-size="13" font-weight="700" fill="#1c2b33">6</text>
  <text x="64" y="455" font-size="13.5" font-weight="500" fill="#1c2b33">11.</text>
  <text x="88" y="455" font-size="13.5" font-weight="500" fill="#1c2b33">Sultan Medical</text>
  <rect x="300" y="442" width="360" height="16" fill="#edf3f8"/>
  <rect x="300" y="442" width="99" height="16" fill="#14507e"/>
  <text x="672" y="455" font-size="13" font-weight="700" fill="#1c2b33">5.5</text>
  <text x="64" y="484" font-size="13.5" font-weight="500" fill="#1c2b33">12.</text>
  <text x="88" y="484" font-size="13.5" font-weight="500" fill="#1c2b33">Wadi Al Hanan</text>
  <rect x="300" y="471" width="360" height="16" fill="#edf3f8"/>
  <rect x="300" y="471" width="99" height="16" fill="#14507e"/>
  <text x="672" y="484" font-size="13" font-weight="700" fill="#1c2b33">5.5</text>
  <text x="64" y="513" font-size="13.5" font-weight="500" fill="#1c2b33">13.</text>
  <text x="88" y="513" font-size="13.5" font-weight="500" fill="#1c2b33">Biomax</text>
  <rect x="300" y="500" width="360" height="16" fill="#edf3f8"/>
  <rect x="300" y="500" width="90" height="16" fill="#14507e"/>
  <text x="672" y="513" font-size="13" font-weight="700" fill="#1c2b33">5</text>
  <text x="64" y="542" font-size="13.5" font-weight="500" fill="#1c2b33">14.</text>
  <text x="88" y="542" font-size="13.5" font-weight="500" fill="#1c2b33">Raza Medical</text>
  <rect x="300" y="529" width="360" height="16" fill="#edf3f8"/>
  <rect x="300" y="529" width="63" height="16" fill="#14507e"/>
  <text x="672" y="542" font-size="13" font-weight="700" fill="#1c2b33">3.5</text>
  <text x="64" y="571" font-size="13.5" font-weight="500" fill="#1c2b33">15.</text>
  <text x="88" y="571" font-size="13.5" font-weight="500" fill="#1c2b33">Alsarm</text>
  <rect x="300" y="558" width="360" height="16" fill="#edf3f8"/>
  <rect x="300" y="558" width="54" height="16" fill="#14507e"/>
  <text x="672" y="571" font-size="13" font-weight="700" fill="#1c2b33">3</text>
  <rect x="760" y="132" width="6" height="78" fill="#14507e"/>
  <text x="782" y="158" font-size="34" font-weight="800" fill="#173f5f">0 / 10</text>
  <text x="782" y="182" font-size="13.5" fill="#5a6a76">direct repair competitors have</text>
  <text x="782" y="200" font-size="13.5" fill="#5a6a76">any Arabic website — we are fully bilingual</text>
  <rect x="760" y="240" width="6" height="78" fill="#b8860b"/>
  <text x="782" y="266" font-size="34" font-weight="800" fill="#173f5f">1 / 15</text>
  <text x="782" y="290" font-size="13.5" fill="#5a6a76">sites display a verifiable</text>
  <text x="782" y="308" font-size="13.5" fill="#5a6a76">trade license. It&#x27;s ours (DET 1475682)</text>
  <rect x="760" y="348" width="6" height="78" fill="#14507e"/>
  <text x="782" y="374" font-size="34" font-weight="800" fill="#173f5f">4 / 15</text>
  <text x="782" y="398" font-size="13.5" fill="#5a6a76">sites have any FAQ section —</text>
  <text x="782" y="416" font-size="13.5" fill="#5a6a76">ours is the only bilingual one</text>
  <rect x="760" y="456" width="6" height="78" fill="#14507e"/>
  <text x="782" y="482" font-size="34" font-weight="800" fill="#173f5f">10 / 15</text>
  <text x="782" y="506" font-size="13.5" fill="#5a6a76">claim years-in-business;</text>
  <text x="782" y="524" font-size="13.5" fill="#5a6a76">none show verifiable proof</text>
  <rect x="0" y="596" width="1200" height="34" fill="#edf3f8"/>
  <text x="40" y="617" font-size="11" fill="#5a6a76">Public website data only · competitor claims as stated, not independently verified · trademarks belong to their owners · © 2026 Qaboos Best Medical &amp; Laboratory Equipment Repairing Est.</text>
</svg>
